<?xml version="1.0" encoding="utf-8"?>
<!-- Generator: Adobe Illustrator 23.0.6, SVG Export Plug-In . SVG Version: 6.00 Build 0)  -->
<svg version="1.1" id="Layer_1" xmlns="http://www.w3.org/2000/svg" xmlns:xlink="http://www.w3.org/1999/xlink" x="0px" y="0px"
	 viewBox="0 0 140 140" style="enable-background:new 0 0 140 140;" xml:space="preserve">
<style type="text/css">
	.st0{fill:#2759AB;}
	.st1{fill:#525354;}
	.st2{fill:#D77165;}
	.st3{fill:#FFFFFF;}
	.st4{fill:#52B1B1;}
	.st5{fill:#F0DC6A;}
</style>
<title></title>
<circle class="st0" cx="70" cy="70" r="64"/>
<path class="st1" d="M36,39.5h18c0.6,0,1,0.4,1,1v62c0,0.6-0.4,1-1,1H36c-0.6,0-1-0.4-1-1v-62C35,39.9,35.5,39.5,36,39.5z"/>
<path class="st2" d="M35,38.5h18c0.6,0,1,0.4,1,1v62c0,0.6-0.4,1-1,1H35c-0.6,0-1-0.4-1-1v-62C34,38.9,34.5,38.5,35,38.5z"/>
<path class="st3" d="M38,42.5h12c0.6,0,1,0.4,1,1v42c0,0.6-0.4,1-1,1H38c-0.6,0-1-0.4-1-1v-42C37,42.9,37.5,42.5,38,42.5z"/>
<circle class="st1" cx="43" cy="94.5" r="3"/>
<circle class="st3" cx="44" cy="94.5" r="3"/>
<path class="st1" d="M40,46.1h8c0.6,0,1,0.4,1,1l0,0c0,0.6-0.4,1-1,1h-8c-0.6,0-1-0.4-1-1l0,0C39,46.5,39.5,46.1,40,46.1z"/>
<path class="st1" d="M40.2,51.1h8c0.6,0,1,0.4,1,1l0,0c0,0.6-0.4,1-1,1h-8c-0.6,0-1-0.4-1-1l0,0C39.2,51.5,39.7,51.1,40.2,51.1z"/>
<path class="st1" d="M40.2,56.1h8c0.6,0,1,0.4,1,1l0,0c0,0.6-0.4,1-1,1h-8c-0.6,0-1-0.4-1-1l0,0C39.2,56.5,39.7,56.1,40.2,56.1z"/>
<path class="st1" d="M58,39.5h18c0.6,0,1,0.4,1,1v62c0,0.6-0.4,1-1,1H58c-0.6,0-1-0.4-1-1v-62C57,39.9,57.5,39.5,58,39.5z"/>
<path class="st4" d="M57,38.5h18c0.6,0,1,0.4,1,1v62c0,0.6-0.4,1-1,1H57c-0.6,0-1-0.4-1-1v-62C56,38.9,56.5,38.5,57,38.5z"/>
<path class="st3" d="M60,42.5h12c0.6,0,1,0.4,1,1v42c0,0.6-0.4,1-1,1H60c-0.6,0-1-0.4-1-1v-42C59,42.9,59.5,42.5,60,42.5z"/>
<circle class="st1" cx="65.1" cy="94.5" r="3"/>
<circle class="st3" cx="66.1" cy="94.5" r="3"/>
<path class="st1" d="M62,46.1h8c0.6,0,1,0.4,1,1l0,0c0,0.6-0.4,1-1,1h-8c-0.6,0-1-0.4-1-1l0,0C61,46.5,61.5,46.1,62,46.1z"/>
<path class="st1" d="M62.2,51.1h8c0.6,0,1,0.4,1,1l0,0c0,0.6-0.4,1-1,1h-8c-0.6,0-1-0.4-1-1l0,0C61.2,51.5,61.7,51.1,62.2,51.1z"/>
<path class="st1" d="M62.2,56.1h8c0.6,0,1,0.4,1,1l0,0c0,0.6-0.4,1-1,1h-8c-0.6,0-1-0.4-1-1l0,0C61.2,56.5,61.7,56.1,62.2,56.1z"/>
<path class="st1" d="M79,39.9l17.9-2.3c0.5-0.1,1,0.3,1.1,0.9l7.9,61.5c0.1,0.5-0.3,1-0.9,1.1l-17.9,2.3c-0.5,0.1-1-0.3-1.1-0.9
	L78.2,41C78.1,40.4,78.5,39.9,79,39.9z"/>
<path class="st5" d="M78,38.9l17.9-2.3c0.5-0.1,1,0.3,1.1,0.9l7.9,61.5c0.1,0.5-0.3,1-0.9,1.1l-17.9,2.3c-0.5,0.1-1-0.3-1.1-0.9
	L77.2,40C77.1,39.4,77.5,38.9,78,38.9z"/>
<path class="st3" d="M81.5,42.4l11.9-1.5c0.5-0.1,1,0.3,1.1,0.9l5.4,41.7c0.1,0.5-0.3,1-0.9,1.1l-11.9,1.5c-0.5,0.1-1-0.3-1.1-0.9
	l-5.4-41.7C80.6,43,81,42.5,81.5,42.4z"/>
<circle class="st1" cx="93.2" cy="93.1" r="3"/>
<circle class="st3" cx="94.1" cy="93.2" r="3"/>
<path class="st1" d="M84,45.8l7.9-1c0.5-0.1,1,0.3,1.1,0.9l0,0c0.1,0.5-0.3,1-0.9,1.1l-7.9,1c-0.5,0.1-1-0.3-1.1-0.9l0,0
	C83,46.3,83.4,45.8,84,45.8z"/>
<path class="st1" d="M84.8,50.7l7.9-1c0.5-0.1,1,0.3,1.1,0.9l0,0c0.1,0.5-0.3,1-0.9,1.1l-7.9,1c-0.5,0.1-1-0.3-1.1-0.9l0,0
	C83.8,51.3,84.2,50.8,84.8,50.7z"/>
<path class="st1" d="M85.4,55.7l7.9-1c0.5-0.1,1,0.3,1.1,0.9l0,0c0.1,0.5-0.3,1-0.9,1.1l-7.9,1c-0.5,0.1-1-0.3-1.1-0.9l0,0
	C84.5,56.2,84.9,55.7,85.4,55.7z"/>
</svg>
