<?xml version="1.0" encoding="utf-8"?>
<!-- Generator: Adobe Illustrator 23.0.6, SVG Export Plug-In . SVG Version: 6.00 Build 0)  -->
<svg version="1.1" id="Layer_1" xmlns="http://www.w3.org/2000/svg" xmlns:xlink="http://www.w3.org/1999/xlink" x="0px" y="0px"
	 viewBox="0 0 64 64" style="enable-background:new 0 0 64 64;" xml:space="preserve">
<style type="text/css">
	.st0{fill:#00A8EA;}
	.st1{fill:#BACA5B;}
	.st2{fill:#FFFFFF;}
	.st3{fill:#695652;}
	.st4{fill:#C64444;}
	.st5{fill:#EB5151;}
	.st6{fill:#F3EEE4;}
	.st7{fill:#B7C156;}
	.st8{fill:#40EEFF;}
	.st9{fill:#33D3F4;}
</style>
<g>
	<circle class="st0" cx="32" cy="32" r="32"/>
	<g>
		<g>
			<g>
				<rect x="29" y="30.1" class="st1" width="24" height="16.5"/>
			</g>
		</g>
		<g>
			<polygon class="st2" points="29,30.1 20.8,18.2 12.5,30.1 12.5,46.6 29,46.6 			"/>
		</g>
		<g>
			<rect x="17" y="34.6" class="st3" width="7.5" height="12"/>
		</g>
		<path class="st4" d="M55.2,30.1L46,16.6h-2.1c-0.3,1.8-1.2,3.3-2.4,4.5H30.1c-1.3-1.2-2.1-2.7-2.4-4.5h-9.4L8.8,30.1h3.8l0,0
			l8.2-11.9L29,30.1l0,0H55.2z"/>
		<polygon class="st5" points="29.6,30.1 20,16.6 10.3,30.1 12.5,30.1 20,19.3 27.4,30.1 		"/>
		<g>
			<rect x="8.8" y="46.6" class="st6" width="46.5" height="2.6"/>
		</g>
		<g>
			<g>
				<rect x="29" y="31.3" class="st7" width="1.5" height="0.6"/>
				<rect x="32.2" y="31.3" class="st7" width="3.2" height="0.6"/>
				<rect x="37" y="31.3" class="st7" width="3.2" height="0.6"/>
				<rect x="41.8" y="31.3" class="st7" width="3.2" height="0.6"/>
				<rect x="46.6" y="31.3" class="st7" width="3.2" height="0.6"/>
				<rect x="51.5" y="31.3" class="st7" width="1.5" height="0.6"/>
			</g>
			<g>
				<rect x="29.8" y="33" class="st7" width="3.2" height="0.6"/>
				<rect x="34.6" y="33" class="st7" width="3.2" height="0.6"/>
				<rect x="39.4" y="33" class="st7" width="3.2" height="0.6"/>
				<rect x="44.2" y="33" class="st7" width="3.2" height="0.6"/>
				<rect x="49.1" y="33" class="st7" width="3.2" height="0.6"/>
			</g>
			<g>
				<rect x="29" y="34.7" class="st7" width="1.5" height="0.6"/>
				<rect x="32.2" y="34.7" class="st7" width="3.2" height="0.6"/>
				<rect x="37" y="34.7" class="st7" width="3.2" height="0.6"/>
				<rect x="41.8" y="34.7" class="st7" width="3.2" height="0.6"/>
				<rect x="46.6" y="34.7" class="st7" width="3.2" height="0.6"/>
				<rect x="51.5" y="34.7" class="st7" width="1.5" height="0.6"/>
			</g>
			<g>
				<rect x="29.8" y="36.4" class="st7" width="3.2" height="0.6"/>
				<rect x="34.6" y="36.4" class="st7" width="3.2" height="0.6"/>
				<rect x="39.4" y="36.4" class="st7" width="3.2" height="0.6"/>
				<rect x="44.2" y="36.4" class="st7" width="3.2" height="0.6"/>
				<rect x="49.1" y="36.4" class="st7" width="3.2" height="0.6"/>
			</g>
			<g>
				<rect x="29" y="38" class="st7" width="1.5" height="0.6"/>
				<rect x="32.2" y="38" class="st7" width="3.2" height="0.6"/>
				<rect x="37" y="38" class="st7" width="3.2" height="0.6"/>
				<rect x="41.8" y="38" class="st7" width="3.2" height="0.6"/>
				<rect x="46.6" y="38" class="st7" width="3.2" height="0.6"/>
				<rect x="51.5" y="38" class="st7" width="1.5" height="0.6"/>
			</g>
			<g>
				<rect x="29.8" y="39.7" class="st7" width="3.2" height="0.6"/>
				<rect x="34.6" y="39.7" class="st7" width="3.2" height="0.6"/>
				<rect x="39.4" y="39.7" class="st7" width="3.2" height="0.6"/>
				<rect x="44.2" y="39.7" class="st7" width="3.2" height="0.6"/>
				<rect x="49.1" y="39.7" class="st7" width="3.2" height="0.6"/>
			</g>
			<g>
				<rect x="29" y="41.4" class="st7" width="1.5" height="0.6"/>
				<rect x="32.2" y="41.4" class="st7" width="3.2" height="0.6"/>
				<rect x="37" y="41.4" class="st7" width="3.2" height="0.6"/>
				<rect x="41.8" y="41.4" class="st7" width="3.2" height="0.6"/>
				<rect x="46.6" y="41.4" class="st7" width="3.2" height="0.6"/>
				<rect x="51.5" y="41.4" class="st7" width="1.5" height="0.6"/>
			</g>
			<g>
				<rect x="29.8" y="43.1" class="st7" width="3.2" height="0.6"/>
				<rect x="34.6" y="43.1" class="st7" width="3.2" height="0.6"/>
				<rect x="39.4" y="43.1" class="st7" width="3.2" height="0.6"/>
				<rect x="44.2" y="43.1" class="st7" width="3.2" height="0.6"/>
				<rect x="49.1" y="43.1" class="st7" width="3.2" height="0.6"/>
			</g>
			<g>
				<rect x="29" y="44.8" class="st7" width="1.5" height="0.6"/>
				<rect x="32.2" y="44.8" class="st7" width="3.2" height="0.6"/>
				<rect x="37" y="44.8" class="st7" width="3.2" height="0.6"/>
				<rect x="41.8" y="44.8" class="st7" width="3.2" height="0.6"/>
				<rect x="46.6" y="44.8" class="st7" width="3.2" height="0.6"/>
				<rect x="51.5" y="44.8" class="st7" width="1.5" height="0.6"/>
			</g>
		</g>
		<g>
			<rect x="35.2" y="34.4" class="st2" width="13" height="8"/>
			<rect x="36.5" y="35.7" class="st8" width="10.4" height="5.4"/>
			<polygon class="st9" points="36.5,41 47,35.7 47,41 			"/>
		</g>
		<rect x="34.4" y="42.1" class="st5" width="14.6" height="0.8"/>
	</g>
</g>
<polygon class="st4" points="27.1,16.6 44.7,16.6 44.5,21.6 28.3,22.7 "/>
</svg>
